<?xml version="1.0" encoding="utf-8"?>
<svg width="300px" height="300px" viewBox="0 0 300 300" version="1.1" xmlns:xlink="http://www.w3.org/1999/xlink" xmlns="http://www.w3.org/2000/svg">
  <defs>
    <rect width="300" height="300" id="artboard_1" />
    <clipPath id="clip_1">
      <use xlink:href="#artboard_1" clip-rule="evenodd" />
    </clipPath>
  </defs>
  <g id="Artboard" clip-path="url(#clip_1)">
    <use xlink:href="#artboard_1" stroke="none" fill="rgba(165,151,151,0)" />
    <g id="Group" transform="matrix(0.70710677 0.70710677 -0.70710677 0.70710677 150.00032 26.791561)">
      <path d="M4.14018 0L4.14218 0Q4.24381 0 4.34533 0.00498703Q4.44684 0.00997405 4.54799 0.0199361Q4.64913 0.0298981 4.74967 0.0448112Q4.8502 0.0597242 4.94989 0.0795524Q5.04957 0.0993805 5.14816 0.124076Q5.24675 0.148771 5.34401 0.178275Q5.44127 0.207778 5.53696 0.242018Q5.63266 0.276258 5.72655 0.315152Q5.82045 0.354047 5.91233 0.397501Q6.00421 0.440956 6.09384 0.488867Q6.18348 0.536778 6.27065 0.589029Q6.35783 0.64128 6.44234 0.697746Q6.52684 0.754212 6.60848 0.814756Q6.69011 0.8753 6.76868 0.939777Q6.84724 1.00425 6.92255 1.07251Q6.99786 1.14076 7.06973 1.21263Q7.14159 1.2845 7.20985 1.3598Q7.2781 1.43511 7.34258 1.51368Q7.40706 1.59224 7.4676 1.67388Q7.52814 1.75551 7.58461 1.84002Q7.64108 1.92453 7.69333 2.0117Q7.74558 2.09888 7.79349 2.18851Q7.8414 2.27815 7.88485 2.37002Q7.92831 2.4619 7.9672 2.5558Q8.0061 2.6497 8.04034 2.74539Q8.07458 2.84109 8.10408 2.93835Q8.13358 3.03561 8.15828 3.1342Q8.18298 3.23279 8.2028 3.33247Q8.22263 3.43215 8.23755 3.53269Q8.25246 3.63322 8.26242 3.73437Q8.27238 3.83552 8.27737 3.93703Q8.28236 4.03854 8.28236 4.14018L8.28236 171.86Q8.28236 171.961 8.27737 172.063Q8.27238 172.164 8.26242 172.266Q8.25246 172.367 8.23755 172.467Q8.22263 172.568 8.2028 172.668Q8.18298 172.767 8.15828 172.866Q8.13358 172.964 8.10408 173.062Q8.07458 173.159 8.04034 173.255Q8.0061 173.35 7.9672 173.444Q7.92831 173.538 7.88485 173.63Q7.8414 173.722 7.79349 173.811Q7.74558 173.901 7.69333 173.988Q7.64108 174.075 7.58461 174.16Q7.52814 174.244 7.4676 174.326Q7.40706 174.408 7.34258 174.486Q7.2781 174.565 7.20985 174.64Q7.14159 174.716 7.06973 174.787Q6.99786 174.859 6.92255 174.928Q6.84724 174.996 6.76868 175.06Q6.69011 175.125 6.60848 175.185Q6.52684 175.246 6.44234 175.302Q6.35783 175.359 6.27065 175.411Q6.18348 175.463 6.09384 175.511Q6.00421 175.559 5.91233 175.602Q5.82045 175.646 5.72655 175.685Q5.63266 175.724 5.53696 175.758Q5.44127 175.792 5.34401 175.822Q5.24675 175.851 5.14816 175.876Q5.04957 175.901 4.94989 175.92Q4.8502 175.94 4.74967 175.955Q4.64913 175.97 4.54799 175.98Q4.44684 175.99 4.34533 175.995Q4.24381 176 4.14218 176L4.14018 176Q4.03854 176 3.93703 175.995Q3.83552 175.99 3.73437 175.98Q3.63322 175.97 3.53269 175.955Q3.43215 175.94 3.33247 175.92Q3.23279 175.901 3.1342 175.876Q3.03561 175.851 2.93835 175.822Q2.84109 175.792 2.74539 175.758Q2.6497 175.724 2.5558 175.685Q2.4619 175.646 2.37002 175.602Q2.27815 175.559 2.18851 175.511Q2.09888 175.463 2.0117 175.411Q1.92453 175.359 1.84002 175.302Q1.75551 175.246 1.67388 175.185Q1.59224 175.125 1.51368 175.06Q1.43511 174.996 1.3598 174.928Q1.2845 174.859 1.21263 174.787Q1.14076 174.716 1.07251 174.64Q1.00425 174.565 0.939777 174.486Q0.8753 174.408 0.814756 174.326Q0.754211 174.244 0.697746 174.16Q0.64128 174.075 0.589029 173.988Q0.536778 173.901 0.488867 173.812Q0.440956 173.722 0.397501 173.63Q0.354047 173.538 0.315152 173.444Q0.276258 173.35 0.242018 173.255Q0.207778 173.159 0.178275 173.062Q0.148771 172.964 0.124076 172.866Q0.0993805 172.767 0.0795524 172.668Q0.0597242 172.568 0.0448112 172.467Q0.0298981 172.367 0.0199361 172.266Q0.00997405 172.165 0.00498703 172.063Q0 171.961 0 171.86L0 4.14018Q0 4.03854 0.00498703 3.93703Q0.00997405 3.83552 0.0199361 3.73437Q0.0298981 3.63322 0.0448112 3.53269Q0.0597242 3.43215 0.0795524 3.33247Q0.0993805 3.23279 0.124076 3.1342Q0.148771 3.03561 0.178275 2.93835Q0.207778 2.84109 0.242018 2.74539Q0.276258 2.6497 0.315152 2.5558Q0.354047 2.4619 0.397501 2.37002Q0.440956 2.27815 0.488867 2.18851Q0.536778 2.09888 0.589029 2.0117Q0.64128 1.92453 0.697746 1.84002Q0.754212 1.75551 0.814756 1.67388Q0.8753 1.59224 0.939777 1.51368Q1.00425 1.43511 1.07251 1.3598Q1.14076 1.2845 1.21263 1.21263Q1.2845 1.14076 1.3598 1.07251Q1.43511 1.00425 1.51368 0.939777Q1.59224 0.8753 1.67388 0.814756Q1.75551 0.754211 1.84002 0.697746Q1.92453 0.64128 2.0117 0.589029Q2.09888 0.536778 2.18851 0.488867Q2.27815 0.440956 2.37002 0.397501Q2.4619 0.354047 2.5558 0.315152Q2.6497 0.276258 2.74539 0.242018Q2.84109 0.207778 2.93835 0.178275Q3.03561 0.148771 3.1342 0.124076Q3.23279 0.0993805 3.33247 0.0795524Q3.43215 0.0597242 3.53269 0.0448112Q3.63322 0.0298981 3.73437 0.0199361Q3.83552 0.00997405 3.93703 0.00498703Q4.03854 0 4.14018 0Z" transform="translate(83.85968 0)" id="Rectangle" fill="#FF4655" fill-rule="evenodd" stroke="#FF4655" stroke-width="15" />
      <path d="M4.14054 1.52625e-05L4.14254 1.52551e-05Q4.24419 1.48806e-05 4.34571 0.00500198Q4.44723 0.00998908 4.54839 0.0199516Q4.64954 0.0299142 4.75009 0.0448282Q4.85063 0.0597422 4.95032 0.0795718Q5.05002 0.0994013 5.14861 0.124099Q5.24721 0.148796 5.34448 0.178301Q5.44175 0.207807 5.53745 0.24205Q5.63315 0.276293 5.72706 0.31519Q5.82097 0.354087 5.91285 0.397546Q6.00474 0.441004 6.09438 0.488919Q6.18403 0.536834 6.27121 0.589089Q6.35839 0.641345 6.44291 0.697815Q6.52742 0.754286 6.60906 0.814835Q6.69071 0.875384 6.76928 0.939867Q6.84785 1.00435 6.92316 1.07261Q6.99848 1.14087 7.07035 1.21274Q7.14223 1.28462 7.21049 1.35993Q7.27875 1.43524 7.34323 1.51382Q7.40771 1.59239 7.46826 1.67403Q7.52881 1.75567 7.58528 1.84019Q7.64175 1.9247 7.69401 2.01188Q7.74626 2.09907 7.79418 2.18871Q7.84209 2.27835 7.88555 2.37024Q7.92901 2.46212 7.96791 2.55603Q8.00681 2.64994 8.04105 2.74564Q8.07529 2.84134 8.1048 2.93861Q8.13431 3.03588 8.159 3.13448Q8.1837 3.23307 8.20353 3.33277Q8.22336 3.43246 8.23827 3.533Q8.25319 3.63355 8.26315 3.7347Q8.27312 3.83586 8.2781 3.93738Q8.28309 4.0389 8.28309 4.14054L8.28309 171.86Q8.28309 171.962 8.2781 172.064Q8.27311 172.165 8.26315 172.266Q8.25319 172.367 8.23827 172.468Q8.22336 172.569 8.20353 172.668Q8.1837 172.768 8.159 172.867Q8.13431 172.965 8.1048 173.062Q8.07529 173.16 8.04105 173.255Q8.00681 173.351 7.96791 173.445Q7.92901 173.539 7.88555 173.631Q7.84209 173.723 7.79418 173.812Q7.74626 173.902 7.69401 173.989Q7.64175 174.076 7.58528 174.161Q7.52881 174.245 7.46826 174.327Q7.40771 174.409 7.34323 174.487Q7.27875 174.566 7.21048 174.641Q7.14222 174.716 7.07035 174.788Q6.99848 174.86 6.92316 174.928Q6.84785 174.997 6.76928 175.061Q6.69071 175.126 6.60906 175.186Q6.52742 175.247 6.44291 175.303Q6.35839 175.36 6.27121 175.412Q6.18403 175.464 6.09438 175.512Q6.00474 175.56 5.91286 175.603Q5.82097 175.647 5.72706 175.686Q5.63315 175.725 5.53745 175.759Q5.44175 175.793 5.34448 175.823Q5.24721 175.852 5.14861 175.877Q5.05002 175.902 4.95032 175.921Q4.85063 175.941 4.75009 175.956Q4.64954 175.971 4.54839 175.981Q4.44723 175.991 4.34571 175.996Q4.24419 176.001 4.14254 176.001L4.14054 176.001Q4.0389 176.001 3.93738 175.996Q3.83586 175.991 3.7347 175.981Q3.63354 175.971 3.533 175.956Q3.43246 175.941 3.33276 175.921Q3.23307 175.902 3.13447 175.877Q3.03588 175.852 2.93861 175.823Q2.84134 175.793 2.74564 175.759Q2.64993 175.725 2.55603 175.686Q2.46212 175.647 2.37023 175.603Q2.27835 175.56 2.18871 175.512Q2.09906 175.464 2.01188 175.412Q1.9247 175.36 1.84018 175.303Q1.75567 175.247 1.67402 175.186Q1.59238 175.126 1.51381 175.061Q1.43524 174.997 1.35992 174.928Q1.28461 174.86 1.21274 174.788Q1.14086 174.716 1.0726 174.641Q1.00434 174.566 0.93986 174.487Q0.875378 174.409 0.814828 174.327Q0.754278 174.245 0.697807 174.161Q0.641337 174.076 0.589081 173.989Q0.536825 173.902 0.48891 173.812Q0.440995 173.723 0.397537 173.631Q0.354078 173.539 0.31518 173.445Q0.276282 173.351 0.242039 173.255Q0.207796 173.16 0.17829 173.062Q0.148785 172.965 0.124087 172.867Q0.0993893 172.768 0.0795594 172.668Q0.0597295 172.569 0.0448151 172.468Q0.0299008 172.367 0.0199379 172.266Q0.00997493 172.165 0.00498747 172.064Q0 171.962 0 171.86L0 4.14057Q0 4.03893 0.00498746 3.93741Q0.00997492 3.83589 0.0199378 3.73473Q0.0299007 3.63357 0.0448151 3.53303Q0.0597295 3.43249 0.0795593 3.33279Q0.0993892 3.2331 0.124087 3.1345Q0.148784 3.03591 0.17829 2.93864Q0.207796 2.84137 0.242039 2.74567Q0.276282 2.64996 0.31518 2.55605Q0.354078 2.46215 0.397536 2.37026Q0.440995 2.27838 0.48891 2.18873Q0.536825 2.09909 0.589081 2.01191Q0.641336 1.92472 0.697807 1.84021Q0.754278 1.75569 0.814827 1.67405Q0.875377 1.59241 0.93986 1.51384Q1.00434 1.43526 1.0726 1.35995Q1.14086 1.28464 1.21274 1.21276Q1.28461 1.14089 1.35992 1.07263Q1.43524 1.00437 1.51381 0.939885Q1.59238 0.875402 1.67402 0.814852Q1.75567 0.754302 1.84018 0.697831Q1.92469 0.64136 2.01188 0.589104Q2.09906 0.536848 2.1887 0.488932Q2.27835 0.441017 2.37023 0.397558Q2.46212 0.354099 2.55603 0.315201Q2.64993 0.276303 2.74564 0.24206Q2.84134 0.207816 2.93861 0.17831Q3.03588 0.148804 3.13447 0.124106Q3.23307 0.0994078 3.33276 0.0795776Q3.43246 0.0597473 3.533 0.0448326Q3.63354 0.0299179 3.7347 0.0199546Q3.83586 0.00999131 3.93738 0.00500347Q4.0389 1.5637e-05 4.14054 1.52625e-05L4.14054 1.52625e-05Z" transform="matrix(-4.371139E-08 1 -1 -4.371139E-08 176.00102 83.86599)" id="Rectangle-Copy" fill="#FF4655" fill-rule="evenodd" stroke="#FF4655" stroke-width="15" />
    </g>
  </g>
</svg>